<?xml version="1.0" encoding="utf-8"?>
<!-- Generator: Adobe Illustrator 23.0.3, SVG Export Plug-In . SVG Version: 6.00 Build 0)  -->
<svg version="1.1" id="Calque_1" xmlns="http://www.w3.org/2000/svg" xmlns:xlink="http://www.w3.org/1999/xlink" x="0px" y="0px"
	 viewBox="0 0 50 50" style="enable-background:new 0 0 50 50;" xml:space="preserve">
<style type="text/css">
	.st0{fill-rule:evenodd;clip-rule:evenodd;}
</style>
<path id="_" class="st0" fill="white" d="M27.6,18.8c-2.4-2.4-6.4-2.4-8.8,0C17.6,20,17,21.6,17,23.2c0,0.5-0.2,0.9-0.5,1.3
	c-0.7,0.7-1.8,0.7-2.5,0c-0.3-0.3-0.5-0.8-0.5-1.2c0-5.4,4.4-9.8,9.8-9.8c5.4,0,9.8,4.4,9.8,9.8c0,0.5-0.2,0.9-0.5,1.3
	c-0.7,0.7-1.8,0.7-2.5,0c0,0,0,0,0,0c-0.3-0.3-0.5-0.8-0.5-1.3C29.5,21.5,28.8,19.9,27.6,18.8z M34.7,11.8c1.5,1.5,2.6,3.2,3.4,5.1
	c0.8,2,1.3,4.1,1.3,6.2c0,1-0.1,2-0.3,3c-0.2,0.9-0.6,1.8-1,2.6c-0.5,0.8-0.9,1.4-1.2,1.9s-0.8,1-1.5,1.8c-0.6,0.6-1,1.1-1.3,1.5
	c-0.3,0.4-0.6,0.9-0.9,1.4c-0.3,0.6-0.6,1.2-0.7,1.8c-0.1,0.7-0.2,1.4-0.2,2.1c0,5.9-4.8,10.7-10.7,10.7c-1,0-1.8-0.8-1.8-1.8
	s0.8-1.8,1.8-1.8c3.9,0,7.1-3.2,7.1-7.1c0-1,0.1-2,0.3-2.9c0.2-0.9,0.6-1.8,1-2.5c0.5-0.8,0.9-1.4,1.2-1.9s0.8-1,1.5-1.8
	c0.8-0.9,1.3-1.5,1.7-2c1-1.5,1.5-3.2,1.5-5c0-6.9-5.6-12.5-12.5-12.5s-12.5,5.6-12.5,12.5c0,1-0.8,1.8-1.8,1.8
	c-0.5,0-0.9-0.2-1.3-0.5c-0.3-0.3-0.5-0.8-0.5-1.3c0-2.1,0.4-4.3,1.3-6.2c1.6-3.9,4.7-7,8.6-8.6c4-1.7,8.5-1.7,12.5,0
	C31.4,9.2,33.2,10.4,34.7,11.8L34.7,11.8z M0.3,43.4c-0.4,0.4-0.4,1.2,0,1.6L5,49.7C5.2,49.9,5.5,50,5.8,50c0.3,0,0.6-0.1,0.8-0.3
	l16.1-16.1l-6.3-6.3L0.3,43.4z M44.2,0c-0.3,0-0.6,0.1-0.8,0.3l-5.8,5.8L35,8.7c2.4,1.9,4.2,4.4,5.4,7.2l2-2l0.7-0.7l6.5-6.5
	C49.9,6.4,50,6.1,50,5.8c0-0.3-0.1-0.6-0.3-0.8L45,0.3C44.8,0.1,44.5,0,44.2,0z"/>
</svg>
