<?xml version="1.0" encoding="utf-8"?>
<!-- Generator: Adobe Illustrator 23.0.3, SVG Export Plug-In . SVG Version: 6.00 Build 0)  -->
<svg version="1.1" id="Calque_1" xmlns="http://www.w3.org/2000/svg" xmlns:xlink="http://www.w3.org/1999/xlink" x="0px" y="0px"
	 viewBox="0 0 145.5 107.9" style="enable-background:new 0 0 145.5 107.9;" xml:space="preserve">
<path d="M144.8,42.6L104.3,1c-0.5-0.5-1.2-0.8-1.9-0.8c-0.7,0-1.3,0.3-1.8,0.7L87.3,13.7c-0.5,0.5-0.8,1.2-0.8,1.9
	c0,0.7,0.3,1.3,0.6,1.6l1.7,2.2l-2.6-0.9c-2.3-0.8-3.7-1.2-4.7-1.2l-0.5,0c-2.5,0-7.7,0.7-11.1,1.3l0,0l-0.2,0
	c-2.3-0.3-4.1-0.5-4.2-0.5h-0.2c-1.1,0-2.7,0.4-4.7,1l-2.6,0.8l1.8-2.1c0.3-0.4,0.7-0.9,0.7-1.6c0-0.7-0.2-1.4-0.7-1.9L47,0.8
	C46.5,0.3,45.8,0,45,0h0c-0.7,0-1.3,0.3-1.8,0.7L0.8,40.2C0.3,40.7,0,41.4,0,42.1c0,0.7,0.2,1.4,0.7,1.9l12.6,13.3
	c0.5,0.5,1.2,0.8,2,0.8c0.3,0,0.5,0,0.8-0.1c0.4-0.1,0.7-0.3,1-0.6l1.9-1.8l9.4,9.6L28,65.8c-1.5,1.7-2.2,3.7-2.2,5.8
	c0,2.4,0.9,4.7,2.6,6.4c0.9,1,2.1,1.7,3.4,2.2l0.7,0.3l-0.2,0.7c-0.9,3.2,0,6.5,2.2,8.7c1.7,1.7,3.9,2.6,6.5,2.6h0
	c0.6,0,1.1-0.1,1.7-0.2l0.7-0.1l0.2,0.7c0.4,1.5,1.2,2.9,2.2,4c1.7,1.7,3.9,2.6,6.5,2.6h0c0.6,0,1.3-0.1,1.9-0.2l0.7-0.2l0.2,0.7
	c0.4,1.5,1.2,2.8,2.2,3.8c1.7,1.7,4,2.7,6.4,2.7l0.2,0c0.9,0,1.8-0.2,2.7-0.4c1.2-0.4,2.4-1.1,3.3-2l0.1-0.1l0.2-0.1l0.5-0.4
	l1.5,1.7c0.2,0.2,0.4,0.4,0.8,0.6c1.7,1.5,3.8,2.3,6,2.3l0.1,0c0.9,0,1.8-0.2,2.6-0.4c1.3-0.4,2.4-1.1,3.3-2
	c1.6-1.5,2.5-3.4,2.8-5.6l0.1-0.7l0.7,0c1,0,1.8-0.2,2.5-0.4c1.2-0.4,2.4-1.1,3.4-2c1.6-1.5,2.5-3.4,2.8-5.6l0.1-0.7l0.7,0
	c0.9,0,1.7-0.2,2.5-0.4c1.2-0.4,2.4-1.1,3.3-2c1.6-1.4,2.6-3.4,2.8-5.6l0.1-0.7l0.7,0c1,0,1.8-0.2,2.5-0.4c1.3-0.4,2.4-1.1,3.4-2
	c1.8-1.6,2.8-3.9,2.9-6.3c0.1-1.8-0.4-3.6-1.3-5.1l-0.3-0.6l11.2-10.4l1.8,1.9c0.5,0.5,1.2,0.8,1.9,0.8c0.3,0,0.5-0.1,0.8-0.1
	c0.4-0.1,0.7-0.3,1-0.6l13.3-12.7c0.5-0.5,0.8-1.2,0.8-1.9C145.5,43.7,145.2,43.1,144.8,42.6z M107.1,77.7c-1.2,0-2.3-0.5-3.3-1.4
	l-7.9-8.4l-0.1-0.1l-0.1-0.1l0,0c-0.8-1-1.3-2.2-1.2-3.4c0-1.3,0.6-2.5,1.6-3.4c0.9-0.8,2.1-1.3,3.3-1.3l0.1-0.5c0,0,0,0,0,0v0.5
	c1.2,0,2.4,0.5,3.5,1.4l0,0l4.7,5l2,2.1l1.2,1.3l0.1,0.1l0.1,0.1c0.9,1,1.4,2.2,1.3,3.5c-0.1,1.3-0.6,2.5-1.6,3.4
	c-0.9,0.8-2.1,1.3-3.3,1.3L107.1,77.7z M97.9,86.9l-0.3-0.5c-1.3,0-2.4-0.6-3.4-1.5L83.8,73.6c-0.8-0.9-1.2-2.1-1.1-3.2
	c0-1.3,0.6-2.5,1.6-3.4c0.9-0.8,2.1-1.3,3.3-1.3l0.1-0.5c0,0,0,0,0,0v0.5c1.2,0,2.3,0.4,3.2,1.2l0.1,0.1l10.6,11.3
	c1.8,2,1.7,5.1-0.3,6.9c-0.9,0.8-2,1.3-3.3,1.3L97.9,86.9z M88.2,95.1c-1.3,0-2.4-0.6-3.3-1.5l-0.2-0.1L76,84.1l-0.2-0.3l-0.4-0.4
	l-2.7-3c-1.8-2-1.7-5.1,0.3-7c0.9-0.8,2.1-1.3,3.3-1.3l0.1-0.5c0,0,0,0,0,0v0.5c1.4,0,2.7,0.6,3.6,1.6L80,74v0l1.4,1.5
	c0.1,0.1,0.1,0.2,0.3,0.4l0.2,0.1l9.8,10.6l0.1,0.1l0.3,0.3c0.8,0.9,1.2,2.2,1.2,3.4c-0.1,1.3-0.6,2.5-1.6,3.4
	c-0.9,0.8-2,1.3-3.3,1.3L88.2,95.1z M75.4,102.3l-9-9.8l-0.1-0.1c-0.8-0.9-1.2-2.1-1.2-3.4c0.1-1.3,0.6-2.5,1.6-3.4
	c0.9-0.8,2-1.3,3.3-1.3l0-0.5c0,0,0,0,0,0l0.2,0.5c1.1,0,2.2,0.5,3.1,1.3l9.1,9.8l0.1,0.1l0.1,0.2c1.7,2,1.6,5.1-0.3,6.8
	c-0.9,0.8-2.1,1.3-3.3,1.3C77.7,103.8,76.4,103.3,75.4,102.3z M67.4,100.8c-0.1,0.1-0.1,0.1-0.3,0.2c-0.9,0.8-2.1,1.3-3.4,1.3
	c-1.3,0-2.5-0.5-3.5-1.5c-0.9-0.9-1.4-2.2-1.4-3.5c0-1.3,0.5-2.4,1.4-3.4l0.1-0.1l2.1-1.9l0.5,1c0.4,0.8,0.8,1.3,1.2,1.8l4.5,4.9
	L67.4,100.8z M109.7,63.8l-3.6-3.8l-0.4-0.4l-0.7-0.7c-1.5-1.6-3.6-2.5-5.8-2.5h0c-2,0-3.8,0.8-5.3,2.1c-1.2,1.1-2,2.5-2.3,4.2
	l-0.2,0.9l-0.9-0.4c-0.9-0.4-2-0.6-3.1-0.6h0c-2,0-3.8,0.8-5.2,2.1c-1.2,1.1-2,2.6-2.4,4.3L79.7,70l-0.9-0.3
	c-0.9-0.3-1.7-0.4-2.7-0.4h0c-1.9,0-3.8,0.8-5.2,2.1c-2.5,2.3-3.2,6-1.8,9.1l0.4,0.9l-1,0.2c-1.4,0.3-2.7,1-3.8,1.9
	c-1.2,1.1-2,2.6-2.4,4.3L62.2,88l-6.4,6l-0.2,0.2c-0.9,0.8-2.1,1.3-3.4,1.3c-1.3,0-2.6-0.5-3.5-1.5c-0.9-1-1.4-2.2-1.4-3.5
	c0-1.3,0.5-2.5,1.5-3.4l12.1-11.2c0.3-0.3,0.5-0.6,0.5-1c0-0.4-0.1-0.8-0.4-1.1c-0.3-0.3-0.7-0.5-1.1-0.5h0c-0.4,0-0.7,0.1-1,0.4
	L46.8,84.9L46.7,85l-0.1,0L44.5,87l-0.2,0.1c-0.9,0.8-2.1,1.3-3.3,1.3c-1.3,0-2.6-0.5-3.5-1.5c-0.9-0.9-1.4-2.2-1.4-3.5
	c0-1.3,0.5-2.5,1.4-3.5l15.7-14.3c0.6-0.6,0.7-1.5,0.1-2.1c-0.4-0.4-0.9-0.5-1.1-0.5c-0.4,0-0.7,0.1-1,0.4L38.6,75.1h-0.2l-0.2,0.2
	c-0.9,0.9-2.1,1.4-3.5,1.4c-1.3,0-2.6-0.6-3.5-1.5c-0.9-0.9-1.4-2.2-1.4-3.5c0-1.3,0.5-2.5,1.4-3.4l0.2-0.2
	c11-10.2,32.3-29.9,34.7-31.5c0.8-0.5,1.6-0.8,2.7-0.8c0.8,0,1.6,0.1,2.6,0.3c1,0.2,2.2,0.3,3.4,0.4l0.4,0l0.2,0.3
	c3.2,4.2,6.8,6.3,10.9,6.3h0c1.7,0,3.4-0.4,5.1-1.2c0.9-0.4,1.4-1.1,1.6-2c0.5-2.7-2.5-7.3-10.6-15.9c-0.4-0.4-1-1.1-1.2-1.4
	l-0.1-0.1l-2.5-1l3-0.4c0.8,0.2,2.1,0.8,3.4,1.4c1,0.4,2,0.9,2.9,1.2l0.3,0.1c3.2,1.2,6.5,2.5,9.5,3.3l0.2,0.1l25.6,26.3L111,65.2
	l-1.1-1.3C109.8,63.9,109.7,63.8,109.7,63.8z M48.1,27l0.2,0c3-0.6,6.3-1.7,9.7-2.8l0.2-0.1c3.4-1.1,6-1.9,7-1.9l0.1,0
	c2.5,0,11.8,1.8,13.9,2.6l0.2,0.1l1,1.1c7.1,7.6,9.2,11,9.7,12.4l0.2,0.7l-0.7,0.3c-1.1,0.4-2.2,0.6-3.3,0.7c-3.2,0-6.2-2-9-6
	c-0.3-0.4-0.7-0.6-1.3-0.6l-0.2,0c-1.4,0-2.6-0.2-3.8-0.3c-1-0.1-2-0.3-3.2-0.3h0c-1.6,0-2.9,0.4-4.2,1.3
	c-1.8,1.2-13.3,11.6-31.6,28.6l-0.6,0.5L21.2,52L48.1,27z"/>
</svg>
