<?xml version="1.0" encoding="utf-8"?>
<!-- Generator: Adobe Illustrator 23.0.3, SVG Export Plug-In . SVG Version: 6.00 Build 0)  -->
<svg version="1.1" id="Groupe_2" xmlns="http://www.w3.org/2000/svg" xmlns:xlink="http://www.w3.org/1999/xlink" x="0px" y="0px"
	 viewBox="0 0 92.5 92.2" style="enable-background:new 0 0 92.5 92.2;" xml:space="preserve">
<path d="M89.3,21.6c0,0.4-0.1,0.8-0.2,1c-0.1,0.3-0.2,0.6-0.5,0.7c-0.2,0.1-0.5,0-0.9-0.2c-0.2,2.6-0.5,6.9-2.1,10.7
	c-0.7,1.9-1.8,3.7-3.2,5.2c-2.4,2.3-5.6,3-8.5,3c-2.3,0-4.4-0.4-5.9-0.7c-0.3,0-0.5-0.1-0.7-0.1c-3.5,0.8-9.3,2-18.1-2.4l0,0
	l-0.3-0.1c0,0,0,0,0,0l0,0l0,0l0.5-1l0,0l0,0c8.8,4.6,14.5,3.3,18,2.5h0h0c0.2,0,0.5,0.1,0.7,0.1C71.6,40.9,78,42,82,38
	c4.4-4.5,4.9-12.6,5.1-16l0-0.4l0.4,0.3c0.6,0.5,0.8,0.5,0.9,0.5c0.2-0.1,0.3-0.7,0.3-0.9c0-0.1,0-0.1,0-0.2c0-1.4-0.2-4-0.3-5.2
	c0-0.4,0-0.7,0-1.1c0-0.8,0.1-1.6,0.2-2.4c0.1-0.6,0.1-1.2,0.1-1.8c0-0.5-0.1-0.6-0.1-0.6c0,0-0.4,0-1.3,1.2L87,11.6l-0.1-0.4
	c-0.4-1.2-1.1-8.5-1.2-9.4l0,0l0-0.1c0,0,0,0,0,0l0,0l0-0.4l0.2,0c0,0,0,0,0,0l0.4,0c0,0.1,0.6,6.6,1.1,8.8c0.6-0.6,1-1,1.4-0.8
	c0,0,0,0,0,0c0,0,0.1,0,0.1,0c0.4,0.1,0.4,0.7,0.4,1.2c0,0.7-0.1,1.4-0.1,2.1c-0.1,0.9-0.2,1.9-0.1,3C89.2,17.5,89.4,20.7,89.3,21.6
	z M49,36l0-34.6l19.3,0.1c0.2,2.1,1.1,14.1,2.6,17.4c1.4,3.2,3.1,4.8,1.4,5.8c-1.7,1-3.6,2-3.5,2.4c0.2,0.4,1.5,1.9,0.1,2.3
	c-1.4,0.4-7.2-1.2-7.2-1.2s1.4,2.1,3.6,3c2.2,0.9,3.1,1.6,2.1,2.1c-1,0.5-2.1,0.8-1.5,2.5c0.6,1.7,1.7,3-1.4,3.4
	C61.6,39.6,55.3,40,49,36z M62.2,13.5c0.9,0.5-0.7-1.9-1.9-1.7c-1.2,0.2-2.4,1.4-2.4,1.4C58.7,13.2,61.3,13,62.2,13.5z M71.1,32.1
	c4.8,0.4,8.8-2.3,7.6-1.9c-3.6,1.1-11.2,0.2-13.1-0.3C65.6,30,66.3,31.7,71.1,32.1z M77.9,11.3c-1.7,0-2.5,2.1-2.5,2.1
	c2.1,0,4.3,0.4,5.2,0.5C80.6,12.2,79.6,11.2,77.9,11.3z M52.1,80.6l-4.9-9.1c-0.2-0.3-0.4-0.6-0.6-0.9c-0.3-0.4-0.5-0.6-0.5-0.7
	c0.7-1,1.4-2,2.2-3l6.2,11.5l3,5.5c0.6,0.4,1.3,0.6,2,0.8c0.8,0.3,1.5,0.5,2.3,0.6c0.1,0,0.3-0.1,0.3-0.2c0,0,0-0.1,0-0.1
	c0-0.1-1.8-3.4-5.3-9.9c-3.5-6.5-5.5-10.2-6-11c0.7-0.7,1.5-1.3,2.3-1.9l12.7,23.5c0.5,0.2,1.1,0.3,1.7,0.2c0.7,0,1.3,0,2-0.1
	c0.1,0,0.2-0.1,0.3-0.2c0-0.1-1.1-2.1-3.3-6.2c-2.2-4.1-4.5-8.3-6.8-12.5s-3.5-6.4-3.5-6.5c0.9-0.5,1.8-0.9,2.8-1.3l-0.2,0.2
	l12.4,22.9l1.8,3.3l3.5,6.4c0.2,0.3,0.5,0.5,0.8,0.4c1.2-0.5,2.4-1.1,3.5-1.8c0.3-0.1,0.5-0.5,0.5-0.8c-0.9-2-1.9-4-3.1-5.9
	c2.8-1.2,5.5-2.9,7.8-4.9c2.4-2.1,4.4-4.4,6.1-7.1c0.4-0.6,0.6-1.2,0.5-1.9c0-0.7-0.2-1.3-0.5-1.9c-2.6-4.2-6.3-7.8-10.6-10.3
	c-5.8-3.5-12.6-4.6-19.2-3.3l-3.5-6.4c-0.2-0.3-0.5-0.5-0.8-0.4c-1.2,0.5-2.4,1.1-3.6,1.8c-0.3,0.2-0.5,0.5-0.5,0.8
	c0.9,2,1.9,4,3.1,5.9c-5.1,2.2-9.4,5.7-12.6,10.2c0,0.1-0.1,0.2-0.3,0.4s-0.3,0.4-0.3,0.4c-0.1,0.1-0.2,0.3-0.3,0.4
	c-0.1,0.2-0.2,0.4-0.3,0.5s-0.1,0.3-0.2,0.4c-0.1,0.2-0.2,0.3-0.2,0.5c0,0.1-0.1,0.3-0.1,0.5c0,0.2-0.1,0.4,0,0.5
	c0,0.7,0.2,1.4,0.6,1.9c1.1,1.8,2.4,3.5,3.9,5c1.4,1.5,3,2.9,4.7,4c0.1,0,0.1,0.1,0.2,0.1C52,80.9,52.1,80.8,52.1,80.6
	C52.1,80.7,52.1,80.6,52.1,80.6L52.1,80.6L52.1,80.6z M78.7,73.6c1.6-3.3,1.8-7.1,0.3-10.5c-0.7-1.6-1.6-3-2.9-4.1
	c5.3,2.2,9.8,6,12.8,10.9c-2.9,4.8-7.3,8.6-12.5,10.7L75,78C76.6,76.9,77.8,75.4,78.7,73.6L78.7,73.6z M67.5,59.6
	c4.7,0,8.5,3.8,8.5,8.5c0,0.4-0.1,0.7-0.4,0.9c-0.5,0.5-1.4,0.5-1.9,0c-0.3-0.2-0.4-0.6-0.4-0.9c0-3.2-2.6-5.8-5.8-5.8c0,0,0,0,0,0
	c-0.7,0-1.3-0.6-1.3-1.3c0,0,0,0,0,0c0-0.4,0.1-0.7,0.4-0.9C66.8,59.7,67.1,59.6,67.5,59.6L67.5,59.6L67.5,59.6z M76.3,59.2L76.1,59
	L76.3,59.2L76.3,59.2z M15.3,0c2.3,0,4.2,1.9,4.2,4.2s-1.9,4.2-4.2,4.2s-4.2-1.9-4.2-4.2S13,0,15.3,0z M38.4,30.9L38.4,30.9
	c-0.7-1-2-1.2-2.9-0.5l-1.7,1.2l-4.9-7c-0.4-0.7-1.1-1.1-1.9-1.1h-8.8v-2.9h7.1c1.2,0,2.1-1,2.1-2.1l0,0c0-1.2-1-2.1-2.1-2.1h-7.1
	v-4.2c0-1.6-1.3-2.9-2.9-2.9s-2.9,1.3-2.9,2.9v13.4c0,1.2,0.9,2.1,2.1,2.1h11.4c0,0,6,8.5,6.3,8.7c0.7,0.4,1.6,0.4,2.3-0.1l3.4-2.4
	C38.9,33.1,39.1,31.8,38.4,30.9z M17.5,37.2c-5.1,0-9.2-4.2-9.2-9.2c0-2.8,1.2-5.3,3.2-6.9V17C7.7,19.1,5,23.2,5,28
	c0,6.9,5.6,12.5,12.6,12.5c5,0,9.3-2.9,11.3-7.1L26.5,30C25.6,34.1,21.9,37.2,17.5,37.2z M22.2,62.6c-2-2-5.2-2-7.1,0
	c-0.9,0.9-1.5,2.2-1.5,3.5c0,0.4-0.2,0.7-0.4,1c-0.6,0.6-1.5,0.6-2,0c-0.3-0.3-0.4-0.6-0.4-1c0-4.4,3.5-7.9,7.9-7.9
	c4.4,0,7.9,3.5,7.9,7.9c0,0.4-0.2,0.7-0.4,1c-0.5,0.6-1.4,0.6-2,0c0,0,0,0,0,0c-0.3-0.3-0.4-0.6-0.4-1
	C23.7,64.8,23.2,63.5,22.2,62.6z M27.9,57c1.2,1.2,2.1,2.6,2.8,4.1c0.7,1.6,1,3.3,1,5c0,0.8-0.1,1.6-0.3,2.4
	c-0.2,0.7-0.5,1.4-0.8,2.1c-0.4,0.7-0.7,1.2-1,1.5c-0.3,0.4-0.7,0.8-1.2,1.4c-0.5,0.5-0.8,0.9-1,1.2c-0.3,0.4-0.5,0.7-0.7,1.1
	c-0.3,0.4-0.5,0.9-0.6,1.4c-0.1,0.5-0.2,1.1-0.2,1.7c0,4.8-3.9,8.6-8.6,8.6c-0.8,0-1.4-0.6-1.4-1.4s0.6-1.4,1.4-1.4
	c3.2,0,5.7-2.6,5.8-5.7c0-0.8,0.1-1.6,0.3-2.4c0.2-0.7,0.4-1.4,0.8-2c0.4-0.6,0.7-1.1,1-1.5c0.3-0.4,0.7-0.8,1.2-1.4
	c0.6-0.7,1-1.2,1.3-1.6c0.8-1.2,1.2-2.6,1.2-4c0-5.6-4.5-10.1-10.1-10.1S8.7,60.6,8.7,66.1c0,0.8-0.6,1.4-1.4,1.4
	c-0.4,0-0.8-0.2-1-0.4c-0.3-0.3-0.4-0.6-0.4-1c0-1.7,0.3-3.4,1-5c1.3-3.1,3.8-5.6,6.9-6.9c3.2-1.4,6.8-1.4,10,0
	C25.3,54.9,26.7,55.8,27.9,57L27.9,57z M0.3,82.3c-0.4,0.4-0.4,0.9,0,1.3L4,87.4c0.2,0.2,0.4,0.3,0.7,0.3c0.2,0,0.5-0.1,0.7-0.3
	l13-13l-5.1-5.1L0.3,82.3z M35.5,47.5c-0.2,0-0.5,0.1-0.7,0.3l-4.7,4.7l-2,2c1.9,1.5,3.4,3.5,4.4,5.8l1.6-1.6l0.6-0.6l5.2-5.2
	c0.2-0.2,0.3-0.4,0.3-0.7c0-0.2-0.1-0.5-0.3-0.7l-3.8-3.8C36,47.5,35.8,47.5,35.5,47.5z"/>
</svg>
