<?xml version="1.0" encoding="utf-8"?>
<!-- Generator: Adobe Illustrator 23.0.3, SVG Export Plug-In . SVG Version: 6.00 Build 0)  -->
<svg version="1.1" id="Calque_1" xmlns="http://www.w3.org/2000/svg" xmlns:xlink="http://www.w3.org/1999/xlink" x="0px" y="0px"
	 viewBox="0 0 118 105.9" style="enable-background:new 0 0 118 105.9;" xml:space="preserve">
<g>
	<path d="M17.1,11.9C17.1,5.3,22.4,0,29,0s11.9,5.3,11.9,11.9c0,6.5-5.3,11.9-11.9,11.9S17.1,18.4,17.1,11.9z M89,23.7
		c6.5,0,11.9-5.3,11.9-11.9C100.9,5.3,95.6,0,89,0c-6.5,0-11.9,5.3-11.9,11.9C77.2,18.4,82.5,23.7,89,23.7z M117.7,46.7l-9.1,17.7
		c-0.9,2.2-3.4,3.3-5.6,2.4c0,0,0,0,0,0c-1-0.4-1.7-1.1-2.2-1.9v35.8c0,2.9-2.4,5.3-5.4,5.3c-3,0-5.4-2.4-5.4-5.3v-31h-2v31
		c0,2.9-2.4,5.3-5.4,5.3c-3,0-5.4-2.4-5.4-5.3V36.3l-7.6,9.3c-1.5,2-4.3,2.4-6.3,1l-7.7-5.7c0.3,0.6,3.1,2.6,1.8,5.8l-9.1,17.7
		c-0.9,2.2-3.4,3.3-5.6,2.4c0,0,0,0,0,0c-1-0.4-1.7-1.1-2.2-1.9v35.8c0,2.9-2.4,5.3-5.4,5.3c-3,0-5.4-2.4-5.4-5.3v-31h-2v31
		c0,2.9-2.4,5.3-5.4,5.3c-3,0-5.4-2.4-5.4-5.3V64.8c-0.5,0.9-1.2,1.6-2.2,1.9c0,0,0,0,0,0c-2.2,0.9-4.7-0.2-5.6-2.4L0.3,46.7
		c-0.5-1.3-0.4-2.8,0.4-4l9.2-11.4c3.5-4.9,7.4-5.6,10.1-5.6h5l3.6,5L25,55.7l4,4.7l0,0v0l4-4.7l-3.6-25.1l3.6-5h5
		c2.3,0,5.5,0.5,8.5,3.7c1.1-2.1,4.1-3.4,6.6-1.6l12.4,9.2l4.6-5.7c3.5-4.9,7.4-5.6,10.1-5.6h5l3.6,5L85,55.7l4,4.7v0v0l4-4.7
		l-3.6-25.1l3.6-5h5c2.7,0,6.6,0.8,10.1,5.6l9.2,11.4C118.1,43.8,118.2,45.4,117.7,46.7z M17.2,36.3l-7.6,9.3l7.6,15.1
		C17.2,60.7,17.2,36.3,17.2,36.3z M48.3,45.6l-7.6-9.3v24.4L48.3,45.6z M108.4,45.6l-7.6-9.3v24.4L108.4,45.6z"/>
</g>
</svg>
