<?xml version="1.0" encoding="utf-8"?>
<!-- Generator: Adobe Illustrator 23.0.3, SVG Export Plug-In . SVG Version: 6.00 Build 0)  -->
<svg version="1.1" id="Groupe_1" xmlns="http://www.w3.org/2000/svg" xmlns:xlink="http://www.w3.org/1999/xlink" x="0px" y="0px"
	 viewBox="0 0 346.6 94.5" style="enable-background:new 0 0 346.6 94.5;" xml:space="preserve">
<style type="text/css">
	.st0{fill:#FFFFFF;}
	.st1{fill:#E41B47;}
</style>

<g>
	<path class="st0" d="M15,23.1c-3.4-1.1-6.1-2.7-8.2-4.8c-2.1-2.1-3.1-4.6-3.1-7.5c0-2.9,1.1-5.4,3.2-7.5c2.1-2.2,4.8-3.2,8-3.2
		c3.1,0,5.8,1.1,8.1,3.3c1.2,1.1,2.1,2.7,2.7,4.8l-5.3,2.1c-0.7-1.8-1.3-2.9-1.8-3.5c-1.1-1.1-2.3-1.6-3.7-1.6
		c-1.4,0-2.6,0.5-3.6,1.6c-1.1,1.1-1.6,2.4-1.6,4.1c0,1.6,0.5,3,1.6,4.2c1.1,1.1,2.7,2.1,4.7,3c3.8,1.2,6.9,3.1,9.5,5.7
		c2.9,2.9,4.4,6.3,4.4,10.3c0,4-1.4,7.4-4.3,10.3c-2.9,2.9-6.4,4.3-10.6,4.3c-4.2,0-7.8-1.5-10.7-4.4c-2.3-2.3-3.7-5.2-4.2-8.8
		l5.7-2.1c0.4,3.4,1.3,6,2.9,7.5c1.8,1.8,3.8,2.6,6.3,2.6c2.4,0,4.6-0.9,6.4-2.7c1.8-1.8,2.7-4.1,2.7-6.7s-0.9-4.9-2.7-6.7
		C19.5,25.5,17.4,24.1,15,23.1"/>
	<rect x="40.8" y="0.7" class="st0" width="6" height="47.4"/>
	<polygon class="st0" points="102,0.7 102,48.1 96,48.1 96,9.5 80.5,30 64.9,9.5 64.9,48.1 58.9,48.1 58.9,0.7 65.3,0.7 80.5,20.6
		95.7,0.7 	"/>
	<path class="st0" d="M119.8,32.5v15.5h-6V0.7h13.6c4,0.5,7.3,2.1,9.9,4.8c3.1,3.1,4.6,6.8,4.6,11.1c0,4.3-1.6,8.1-4.7,11.2
		c-3.1,3.2-7,4.7-11.6,4.7H119.8z M119.8,5.9v21.5h5.9c2.8,0,5.2-1,7.2-3.1c2.1-2.1,3.1-4.6,3.1-7.7c0-3.1-1-5.6-3.1-7.6
		c-2.1-2-4.5-3.1-7.2-3.1H119.8z"/>
	<polygon class="st0" points="152.9,48.1 152.9,0.7 158.8,0.7 158.8,42.9 175.9,42.9 175.9,48.1 	"/>
	<path class="st1" d="M217.3,7.2c4.8,4.8,7.2,10.5,7.2,17.1c0,6.7-2.4,12.4-7.2,17.1c-4.8,4.8-10.6,7.2-17.5,7.2
		c-6.9,0-12.7-2.4-17.5-7.2c-4.8-4.8-7.2-10.5-7.2-17.1c0-6.6,2.4-12.3,7.2-17.1c4.8-4.8,10.6-7.2,17.5-7.2
		C206.7,0,212.5,2.4,217.3,7.2 M199.8,5.2c-5.1,0-9.4,1.9-13.1,5.5c-3.7,3.7-5.5,8.2-5.5,13.5c0,5.4,1.8,9.9,5.5,13.6
		c3.7,3.7,8.1,5.5,13.1,5.5c5.1,0,9.5-1.8,13.1-5.5c3.7-3.7,5.5-8.2,5.5-13.6c0-5.3-1.8-9.8-5.5-13.5C209.3,7.1,204.9,5.2,199.8,5.2
		"/>
	<polygon class="st0" points="236,0.7 263,38.5 263,0.7 269,0.7 269,48.1 262.4,48.1 236.1,11.1 236.1,48.1 230.1,48.1 230.1,0.7
		"/>
	<path class="st1" d="M203.7,14.3h-7.2v7.2h7.2V14.3z M203.7,27.2h-7.2v7.2h7.2V27.2z"/>
</g>
</svg>
