<?xml version="1.0" encoding="utf-8"?>
<!-- Generator: Adobe Illustrator 23.0.3, SVG Export Plug-In . SVG Version: 6.00 Build 0)  -->
<svg version="1.1" id="Calque_1" xmlns="http://www.w3.org/2000/svg" xmlns:xlink="http://www.w3.org/1999/xlink" x="0px" y="0px"
	 viewBox="0 0 30.8 30.9" style="enable-background:new 0 0 30.8 30.9;" xml:space="preserve">
<style type="text/css">
	.st0{fill-rule:evenodd;clip-rule:evenodd;}
</style>
<path id="_" class="st0" fill="white" d="M15.4,20.6c-2.8,0-5.1-2.3-5.2-5.2c0-2.8,2.3-5.1,5.1-5.1s5.1,2.3,5.1,5.1c0,1.4-0.5,2.7-1.5,3.6
	C18.1,20,16.8,20.6,15.4,20.6z M15.4,7.5c-4.4,0-7.9,3.6-7.9,7.9s3.6,7.9,7.9,7.9c4.4,0,7.9-3.6,7.9-7.9c0-2.1-0.8-4.1-2.3-5.6
	C19.6,8.3,17.5,7.5,15.4,7.5L15.4,7.5z M23.7,5.3c-1,0-1.8,0.8-1.8,1.8c0,0.5,0.2,1,0.6,1.3C22.7,8.8,23.2,9,23.7,9
	c0.5,0,1-0.2,1.3-0.6c0.4-0.3,0.5-0.8,0.5-1.3C25.5,6.2,24.7,5.3,23.7,5.3C23.7,5.3,23.7,5.3,23.7,5.3L23.7,5.3z M19.1,2.8
	c0.5,0,1.1,0,1.9,0.1c0.7,0,1.4,0.1,2.1,0.2c0.5,0.1,1,0.2,1.4,0.4c0.7,0.3,1.3,0.7,1.8,1.2c0.5,0.5,0.9,1.1,1.2,1.8
	c0.2,0.5,0.3,0.9,0.4,1.4C27.9,8.4,28,9.1,28,9.8c0,0.8,0.1,1.5,0.1,1.9s0,1.2,0,2.1s0,1.4,0,1.5s0,0.6,0,1.5s0,1.6,0,2.1
	s0,1.1-0.1,1.9c0,0.7-0.1,1.4-0.2,2.1c-0.1,0.5-0.2,1-0.4,1.4c-0.5,1.3-1.6,2.4-2.9,2.9c-0.5,0.2-1,0.3-1.4,0.4
	C22.4,27.9,21.7,28,21,28c-0.8,0-1.5,0.1-1.9,0.1s-1.2,0-2.1,0s-1.4,0-1.5,0s-0.6,0-1.5,0s-1.6,0-2.1,0s-1.1,0-1.9-0.1
	c-0.7,0-1.4-0.1-2.1-0.2c-0.5-0.1-1-0.2-1.4-0.4c-1.3-0.5-2.4-1.6-2.9-2.9c-0.2-0.5-0.3-0.9-0.4-1.4c-0.1-0.7-0.2-1.4-0.2-2.1
	c0-0.8-0.1-1.5-0.1-1.9s0-1.2,0-2.1s0-1.4,0-1.5s0-0.6,0-1.5s0-1.6,0-2.1s0-1.1,0.1-1.9c0-0.7,0.1-1.4,0.2-2.1
	c0.1-0.5,0.2-1,0.4-1.4c0.3-0.7,0.7-1.3,1.2-1.8c0.5-0.5,1.1-0.9,1.8-1.2C6.8,3.2,7.3,3.1,7.8,3c0.7-0.1,1.4-0.2,2.1-0.2
	c0.8,0,1.5-0.1,1.9-0.1s1.2,0,2.1,0s1.4,0,1.5,0s0.6,0,1.5,0S18.6,2.8,19.1,2.8L19.1,2.8z M30.7,9.1c0.2-4.7-3.4-8.7-8.1-9
	c-0.3,0-0.6,0-0.9,0C20.6,0,18.5,0,15.4,0s-5.2,0-6.4,0.1c-4.7-0.2-8.7,3.4-9,8.1c0,0.3,0,0.6,0,0.9C0,10.2,0,12.4,0,15.4
	s0,5.2,0.1,6.4c-0.2,4.7,3.4,8.7,8.1,9c0.3,0,0.6,0,0.9,0c1.2,0.1,3.3,0.1,6.4,0.1c3.1,0,5.2,0,6.4-0.1c4.7,0.2,8.7-3.4,9-8.1
	c0-0.3,0-0.6,0-0.9c0.1-1.2,0.1-3.3,0.1-6.4C30.8,12.4,30.8,10.2,30.7,9.1L30.7,9.1z"/>
</svg>
