<?xml version="1.0" encoding="utf-8"?>
<!-- Generator: Adobe Illustrator 23.0.3, SVG Export Plug-In . SVG Version: 6.00 Build 0)  -->
<svg version="1.1" id="Calque_1" xmlns="http://www.w3.org/2000/svg" xmlns:xlink="http://www.w3.org/1999/xlink" x="0px" y="0px"
	 viewBox="0 0 30.9 29.5" style="enable-background:new 0 0 30.9 29.5;" xml:space="preserve">
<style type="text/css">
	.st0{fill-rule:evenodd;clip-rule:evenodd;}
</style>
<path id="_" class="st0" fill="white" d="M0.4,9.6v19.9H7V9.6H0.4z M6.4,1C5.7,0.3,4.7,0,3.7,0c-1,0-2,0.3-2.7,1C0.3,1.6,0,2.5,0,3.4
	c0,0.9,0.3,1.8,1,2.4c0.7,0.7,1.7,1,2.7,1h0c1,0,2-0.3,2.7-1c0.7-0.6,1-1.5,1-2.4C7.4,2.5,7.1,1.6,6.4,1L6.4,1z M28.8,11.4
	c-1.4-1.5-3.4-2.4-5.5-2.3c-0.8,0-1.6,0.1-2.3,0.3c-0.6,0.2-1.2,0.5-1.8,0.9c-0.4,0.3-0.8,0.7-1.1,1.1c-0.3,0.4-0.6,0.7-0.8,1.1h0
	V9.6h-6.6l0,1c0,0.7,0,2.6,0,5.9s0,7.7,0,13h6.6V18.4c0-0.6,0.1-1.1,0.2-1.6c0.3-0.7,0.7-1.3,1.3-1.7c0.6-0.5,1.4-0.7,2.1-0.7
	c1-0.1,2,0.4,2.5,1.2c0.6,1,0.9,2.1,0.8,3.3v10.7h6.6V18.1C30.9,15.1,30.2,12.9,28.8,11.4L28.8,11.4z"/>
</svg>
