<?xml version="1.0" encoding="utf-8"?>
<!-- Generator: Adobe Illustrator 23.0.3, SVG Export Plug-In . SVG Version: 6.00 Build 0)  -->
<svg version="1.1" id="Calque_1" xmlns="http://www.w3.org/2000/svg" xmlns:xlink="http://www.w3.org/1999/xlink" x="0px" y="0px"
	 viewBox="0 0 48.8 58.5" style="enable-background:new 0 0 48.8 58.5;" xml:space="preserve">
<g fill="white">
	<circle cx="14.9" cy="6.1" r="6.1"/>
	<path d="M48.3,44.6L48.3,44.6c-1-1.4-2.9-1.7-4.2-0.7l-2.5,1.8l-7.1-10.2c-0.5-1-1.5-1.6-2.7-1.6H19.1v-4.2h10.3c1.7,0,3-1.4,3-3.1
		l0,0c0-1.7-1.4-3-3-3H19.1v-6.1c0-2.3-1.8-4.2-4.2-4.2s-4.2,1.9-4.2,4.2v19.3c0,1.7,1.3,3,3,3h16.5c0,0,8.7,12.3,9.1,12.5
		c1,0.6,2.3,0.6,3.3-0.1l5-3.4C48.9,47.8,49.3,45.9,48.3,44.6z"/>
	<path d="M18.1,53.6c-7.3,0-13.3-6-13.3-13.3c0-4,1.8-7.6,4.6-10v-5.8C3.9,27.6,0,33.5,0,40.4c0,9.9,8.1,18.1,18.1,18.1
		c7.2,0,13.4-4.2,16.4-10.3l-3.4-4.8C29.7,49.2,24.5,53.6,18.1,53.6z"/>
</g>
</svg>
