<?xml version="1.0" encoding="utf-8"?>
<!-- Generator: Adobe Illustrator 23.0.3, SVG Export Plug-In . SVG Version: 6.00 Build 0)  -->
<svg version="1.1" id="Calque_1" xmlns="http://www.w3.org/2000/svg" xmlns:xlink="http://www.w3.org/1999/xlink" x="0px" y="0px"
	 viewBox="0 0 64 64.2" style="enable-background:new 0 0 64 64.2;" xml:space="preserve">
<path fill="white" d="M64,32c0,0.6-0.1,1.2-0.4,1.6c-0.1,0.5-0.3,0.9-0.8,1.1c-0.4,0.1-0.8,0-1.4-0.3c-0.3,4.2-0.9,10.8-3.3,16.8
	c-1.2,3-2.8,5.9-5.1,8.2c-3.8,3.6-8.8,4.7-13.4,4.7c-3.6,0-7-0.6-9.3-1c-0.4-0.1-0.8-0.1-1.1-0.2c-5.5,1.2-14.6,3.2-28.6-3.8l0,0
	l-0.4-0.2c0,0,0,0,0,0l0,0l-0.1,0l0.8-1.6l0.1,0l0,0c14,7.2,23,5.2,28.4,4h0.1h0.1c0.3,0.1,0.8,0.1,1.2,0.2c5.4,1,15.5,2.9,21.8-3.5
	c7-7.2,7.7-19.9,8.1-25.3l0.1-0.7l0.6,0.5c0.9,0.8,1.3,0.8,1.4,0.8c0.3-0.1,0.4-1.1,0.5-1.5c0-0.1,0-0.2,0-0.3
	c0-2.2-0.3-6.4-0.4-8.3c0-0.6,0-1.2,0-1.7c0-1.3,0.1-2.5,0.2-3.8c0.1-1,0.2-1.9,0.2-2.9c0-0.8-0.2-0.9-0.2-0.9c-0.1-0.1-0.6,0-2,1.8
	l-0.4,0.5l-0.2-0.6C59.5,13.7,58.4,2,58.2,0.8l0,0l0-0.1c0,0,0,0,0,0l0,0l-0.1-0.6l0.3,0c0,0,0,0,0,0L59.1,0c0,0.1,1,10.4,1.7,13.9
	c0.9-1,1.6-1.5,2.2-1.3c0,0,0,0,0,0c0.1,0,0.1,0,0.2,0.1c0.6,0.2,0.7,1.1,0.7,1.8c0,1.1-0.1,2.2-0.2,3.4c-0.1,1.5-0.3,3-0.2,4.7
	C63.8,25.5,64.1,30.6,64,32z M0.2,54.7L0.3,0l30.5,0.1c0.3,3.3,1.8,22.4,4.1,27.5c2.3,5.1,4.9,7.5,2.2,9.1c-2.7,1.6-5.7,3.1-5.5,3.8
	c0.3,0.6,2.4,3,0.2,3.7c-2.2,0.6-11.4-1.9-11.4-1.9s2.3,3.3,5.7,4.7c3.5,1.5,4.9,2.5,3.4,3.4c-1.6,0.8-3.4,1.2-2.4,4
	c1,2.7,2.6,4.7-2.2,5.3C20.1,60.5,10.2,61.1,0.2,54.7z M21.2,19.1c1.5,0.8-1-3-3-2.7c-1.9,0.3-3.7,2.3-3.7,2.3
	C15.6,18.7,19.7,18.4,21.2,19.1z M35.2,48.7c7.6,0.7,14-3.7,12-3c-5.7,1.8-17.7,0.3-20.7-0.4C26.6,45.2,27.6,47.9,35.2,48.7z
	 M45.9,15.7c-2.7,0.1-3.9,3.3-3.9,3.3c3.3,0,6.8,0.6,8.2,0.8C50.2,17.1,48.7,15.6,45.9,15.7z"/>
</svg>
