<?xml version="1.0" encoding="UTF-8" standalone="no"?><!DOCTYPE svg PUBLIC "-//W3C//DTD SVG 1.1//EN" "http://www.w3.org/Graphics/SVG/1.1/DTD/svg11.dtd"><svg width="100%" height="100%" viewBox="0 0 1108 376" version="1.1" xmlns="http://www.w3.org/2000/svg" xmlns:xlink="http://www.w3.org/1999/xlink" xml:space="preserve" xmlns:serif="http://www.serif.com/" style="fill-rule:evenodd;clip-rule:evenodd;stroke-linejoin:round;stroke-miterlimit:1.41421;"><g id="Calque-1" serif:id="Calque 1"><path d="M119.446,165.918c-9.261,-3.045 -16.694,-7.378 -22.317,-12.995c-5.611,-5.616 -8.416,-12.394 -8.416,-20.339c0,-7.766 2.911,-14.588 8.733,-20.477c5.828,-5.884 13.072,-8.823 21.733,-8.823c8.539,0 15.862,3.017 21.95,9.05c3.167,3.106 5.65,7.467 7.439,13.078l-14.516,5.65c-1.795,-4.839 -3.406,-7.978 -4.839,-9.411c-2.928,-2.983 -6.272,-4.478 -10.034,-4.478c-3.705,0 -7.005,1.445 -9.905,4.345c-2.895,2.9 -4.345,6.583 -4.345,11.066c0,4.423 1.489,8.184 4.478,11.289c3.106,2.989 7.35,5.734 12.728,8.245c10.272,3.35 18.872,8.483 25.806,15.411c7.944,7.883 11.916,17.205 11.916,27.961c0,10.75 -3.928,20.056 -11.783,27.911c-7.856,7.856 -17.489,11.783 -28.895,11.783c-11.472,0 -21.177,-4.033 -29.122,-12.1c-6.216,-6.15 -10.039,-14.127 -11.466,-23.922l15.583,-5.644c0.961,9.378 3.617,16.216 7.978,20.516c4.777,4.778 10.455,7.167 17.027,7.167c6.634,0 12.406,-2.461 17.339,-7.389c4.928,-4.933 7.389,-11.033 7.389,-18.322c0,-7.289 -2.422,-13.356 -7.255,-18.189c-4.9,-4.844 -10.634,-8.633 -17.206,-11.383" style="fill:#fff;fill-rule:nonzero;"/><rect x="189.483" y="104.807" width="16.217" height="128.944" style="fill:#fff;"/><path d="M355.747,104.807l0,128.944l-16.216,0l0,-104.844l-42.384,55.65l-42.478,-55.65l0,104.844l-16.216,0l0,-128.944l17.294,0l41.4,54.211l41.306,-54.211l17.294,0Z" style="fill:#fff;fill-rule:nonzero;"/><path d="M403.732,191.544l0,42.2l-16.217,0l0,-128.938l36.917,0c10.75,1.433 19.739,5.794 26.972,13.083c8.422,8.422 12.633,18.489 12.633,30.194c0,11.773 -4.272,21.956 -12.816,30.561c-8.545,8.6 -19.05,12.9 -31.539,12.9l-15.95,0Zm0,-72.577l0,58.422l15.95,0c7.527,0 14.1,-2.795 19.711,-8.378c5.616,-5.589 8.422,-12.561 8.422,-20.928c0,-8.3 -2.806,-15.227 -8.422,-20.783c-5.611,-5.556 -12.184,-8.333 -19.711,-8.333l-15.95,0Z" style="fill:#fff;fill-rule:nonzero;"/><path d="M494.397,233.751l0,-128.944l16.217,0l0,114.872l46.328,0l0,14.072l-62.545,0Z" style="fill:#fff;fill-rule:nonzero;"/><path d="M669.899,122.548c12.994,13.022 19.489,28.528 19.489,46.511c0,18.094 -6.495,33.644 -19.489,46.639c-12.995,12.989 -28.867,19.483 -47.622,19.483c-18.7,0 -34.55,-6.494 -47.539,-19.483c-12.995,-12.995 -19.495,-28.545 -19.495,-46.639c0,-17.983 6.5,-33.489 19.495,-46.511c12.989,-13.022 28.839,-19.534 47.539,-19.534c18.755,0 34.627,6.512 47.622,19.534m-47.622,-5.378c-13.75,0 -25.634,5.039 -35.667,15.1c-10.039,10.067 -15.056,22.333 -15.056,36.789c0,14.572 5.017,26.878 15.056,36.917c10.033,10.033 21.917,15.055 35.667,15.055c13.794,0 25.711,-5.022 35.744,-15.055c10.039,-10.039 15.056,-22.345 15.056,-36.917c0,-14.456 -5.017,-26.722 -15.056,-36.789c-10.033,-10.061 -21.95,-15.1 -35.744,-15.1" style="fill:#cd1329;fill-rule:nonzero;"/><path d="M720.659,104.807l73.478,103.05l0,-103.05l16.216,0l0,128.944l-17.922,0l-71.6,-100.45l0,100.45l-16.217,0l0,-128.944l16.045,0Z" style="fill:#fff;fill-rule:nonzero;"/><path d="M631.228,143.418l-19.684,0l0,19.684l19.684,0l0,-19.684Zm0,35.123l-19.684,0l0,19.683l19.684,0l0,-19.683Z" style="fill:#cd1329;fill-rule:nonzero;"/><path d="M626.437,292.952l0,-42.583l28.511,0l0,8.044l-18.928,0l0,8.911l16.839,0l0,8.056l-16.839,0l0,17.572l-9.583,0Z" style="fill:#fff;fill-rule:nonzero;"/><path d="M670.805,271.631c0,2.088 0.256,3.972 0.767,5.655c0.511,1.678 1.25,3.122 2.211,4.328c0.966,1.211 2.144,2.144 3.539,2.8c1.389,0.655 2.989,0.983 4.789,0.983c1.766,0 3.355,-0.328 4.766,-0.983c1.411,-0.656 2.595,-1.589 3.561,-2.8c0.961,-1.206 1.7,-2.65 2.217,-4.328c0.506,-1.683 0.761,-3.567 0.761,-5.655c0,-2.089 -0.255,-3.989 -0.761,-5.684c-0.517,-1.705 -1.256,-3.161 -2.217,-4.372c-0.966,-1.2 -2.15,-2.133 -3.561,-2.794c-1.411,-0.65 -3,-0.978 -4.766,-0.978c-1.8,0 -3.4,0.333 -4.789,1.011c-1.395,0.678 -2.573,1.617 -3.539,2.828c-0.961,1.211 -1.7,2.666 -2.211,4.361c-0.511,1.705 -0.767,3.578 -0.767,5.628m32.511,0c0,3.644 -0.544,6.85 -1.628,9.611c-1.089,2.772 -2.572,5.089 -4.455,6.944c-1.889,1.867 -4.128,3.272 -6.734,4.211c-2.6,0.945 -5.4,1.417 -8.388,1.417c-2.906,0 -5.65,-0.472 -8.234,-1.417c-2.583,-0.939 -4.833,-2.344 -6.761,-4.211c-1.928,-1.855 -3.439,-4.172 -4.544,-6.944c-1.111,-2.761 -1.661,-5.967 -1.661,-9.611c0,-3.65 0.572,-6.856 1.716,-9.617c1.15,-2.767 2.7,-5.089 4.645,-6.978c1.944,-1.883 4.194,-3.3 6.755,-4.244c2.561,-0.939 5.256,-1.411 8.084,-1.411c2.911,0 5.655,0.472 8.238,1.411c2.578,0.944 4.834,2.361 6.756,4.244c1.928,1.889 3.444,4.211 4.55,6.978c1.106,2.761 1.661,5.967 1.661,9.617" style="fill:#fff;fill-rule:nonzero;"/><path d="M725.867,258.046c-0.694,0 -1.316,0.022 -1.878,0.061c-0.55,0.044 -1.072,0.083 -1.561,0.122l0,11.555l2.7,0c3.611,0 6.184,-0.45 7.75,-1.35c1.55,-0.905 2.334,-2.438 2.334,-4.611c0,-2.089 -0.795,-3.577 -2.367,-4.455c-1.578,-0.878 -3.906,-1.322 -6.978,-1.322m-0.555,-8.173c6.394,0 11.294,1.134 14.689,3.411c3.4,2.273 5.1,5.806 5.1,10.6c0,2.995 -0.684,5.417 -2.056,7.284c-1.372,1.866 -3.35,3.328 -5.933,4.389c0.866,1.072 1.766,2.283 2.705,3.666c0.945,1.373 1.878,2.8 2.8,4.3c0.922,1.489 1.811,3.05 2.672,4.667c0.856,1.622 1.662,3.211 2.395,4.761l-10.717,0c-0.783,-1.394 -1.572,-2.805 -2.378,-4.233c-0.8,-1.434 -1.622,-2.828 -2.466,-4.184c-0.839,-1.355 -1.678,-2.633 -2.495,-3.844c-0.827,-1.206 -1.65,-2.3 -2.472,-3.289l-4.728,0l0,15.55l-9.589,0l0,-41.967c2.089,-0.416 4.25,-0.7 6.484,-0.866c2.233,-0.161 4.228,-0.245 5.989,-0.245" style="fill:#fff;fill-rule:nonzero;"/><path d="M788.703,260.015c-0.211,0.617 -0.527,1.461 -0.939,2.522c-0.411,1.067 -0.877,2.295 -1.405,3.689c-0.528,1.395 -1.117,2.933 -1.761,4.611c-0.65,1.678 -1.317,3.434 -1.989,5.278l12.183,0c-0.65,-1.85 -1.283,-3.611 -1.894,-5.294c-0.611,-1.678 -1.189,-3.223 -1.745,-4.617c-0.544,-1.4 -1.027,-2.622 -1.444,-3.689c-0.417,-1.061 -0.75,-1.894 -1.006,-2.5m11.517,32.939c-0.472,-1.483 -0.983,-2.995 -1.528,-4.561c-0.544,-1.561 -1.083,-3.111 -1.628,-4.656l-16.633,0c-0.539,1.55 -1.078,3.111 -1.617,4.667c-0.538,1.567 -1.044,3.083 -1.511,4.55l-9.955,0c1.605,-4.589 3.128,-8.828 4.566,-12.717c1.434,-3.9 2.839,-7.566 4.217,-11.005c1.378,-3.445 2.733,-6.711 4.072,-9.8c1.334,-3.095 2.723,-6.117 4.161,-9.061l9.084,0c1.4,2.944 2.778,5.966 4.144,9.061c1.356,3.089 2.722,6.355 4.1,9.8c1.378,3.439 2.789,7.105 4.234,11.005c1.433,3.889 2.961,8.128 4.566,12.717l-10.272,0Z" style="fill:#fff;fill-rule:nonzero;"/><path d="M845.952,284.717l0,8.233l-28.456,0l0,-42.583l9.589,0l0,34.35l18.867,0Z" style="fill:#fff;fill-rule:nonzero;"/><path d="M882.084,284.717l0,8.233l-28.45,0l0,-42.583l9.584,0l0,34.35l18.866,0Z" style="fill:#fff;fill-rule:nonzero;"/><rect x="912.783" y="179.368" width="55.883" height="56.95" style="fill:#127fbc;"/><path d="M968.662,160.387l0,-56.95l-130.394,0l0,132.883l55.883,0l0,-75.933l74.511,0Z" style="fill:#127fbc;fill-rule:nonzero;"/><path d="M968.662,160.387l0,18.983l37.256,0l0,94.917l-93.139,0l0,-37.967l-18.628,0l0,56.95l130.395,0l0,-132.883l-55.884,0Z" style="fill:#127fbc;fill-rule:nonzero;"/></g></svg>