<?xml version="1.0" encoding="utf-8"?>
<!-- Generator: Adobe Illustrator 23.0.3, SVG Export Plug-In . SVG Version: 6.00 Build 0)  -->
<svg version="1.1" id="Calque_1" xmlns="http://www.w3.org/2000/svg" xmlns:xlink="http://www.w3.org/1999/xlink" x="0px" y="0px"
	 viewBox="0 0 31.7 25.7" style="enable-background:new 0 0 31.7 25.7;" xml:space="preserve">
<style type="text/css">
	.st0{fill-rule:evenodd;clip-rule:evenodd;}
</style>
<path class="st0" fill="white" d="M27.9,4.1c1.4-0.8,2.4-2.1,2.9-3.6c-1.3,0.8-2.7,1.3-4.1,1.6c-2.4-2.6-6.6-2.8-9.2-0.3c-1.3,1.2-2.1,3-2.1,4.8
	c0,0.5,0.1,1,0.2,1.5C13,7.9,10.4,7.2,8.1,6C5.8,4.8,3.8,3.2,2.2,1.2c-1.7,3-0.9,6.8,2,8.7c-1,0-2-0.3-2.9-0.8v0.1
	c0,1.5,0.5,3,1.5,4.1c0.9,1.2,2.3,1.9,3.7,2.2c-0.6,0.1-1.1,0.2-1.7,0.2c-0.4,0-0.8,0-1.2-0.1c0.9,2.6,3.3,4.4,6.1,4.5
	c-2.3,1.8-5.1,2.8-8.1,2.8c-0.5,0-1,0-1.6-0.1c3,1.9,6.4,2.9,10,2.9c2.2,0,4.4-0.4,6.5-1.1c1.9-0.7,3.7-1.7,5.2-2.9
	c1.4-1.2,2.7-2.6,3.7-4.2c1-1.5,1.8-3.2,2.3-5c0.5-1.7,0.8-3.4,0.8-5.2c0-0.4,0-0.7,0-0.8c1.3-0.9,2.4-2.1,3.2-3.3
	C30.5,3.6,29.2,3.9,27.9,4.1L27.9,4.1L27.9,4.1z"/>
</svg>
