<?xml version="1.0" encoding="utf-8"?>
<!-- Generator: Adobe Illustrator 23.0.3, SVG Export Plug-In . SVG Version: 6.00 Build 0)  -->
<svg version="1.1" id="Calque_1" xmlns="http://www.w3.org/2000/svg" xmlns:xlink="http://www.w3.org/1999/xlink" x="0px" y="0px"
	 viewBox="0 0 50 44.8" style="enable-background:new 0 0 50 44.8;" xml:space="preserve">
<style type="text/css">
	.st0{fill-rule:evenodd;clip-rule:evenodd;}
</style>
<path id="_" class="st0" fill="white" d="M9.6,33.1L4.7,24c-0.2-0.3-0.4-0.6-0.6-0.9c-0.3-0.4-0.5-0.6-0.5-0.7c0.7-1,1.4-2,2.2-3L12,31l3,5.5
	c0.6,0.4,1.3,0.6,2,0.8c0.8,0.3,1.5,0.5,2.3,0.6c0.1,0,0.3-0.1,0.3-0.2c0,0,0-0.1,0-0.1c0-0.1-1.8-3.4-5.3-9.9
	c-3.5-6.5-5.5-10.2-6-11c0.7-0.7,1.5-1.3,2.3-1.9l12.7,23.5c0.5,0.2,1.1,0.3,1.7,0.2c0.7,0,1.3,0,2-0.1c0.1,0,0.2-0.1,0.3-0.2
	c0-0.1-1.1-2.1-3.3-6.2c-2.2-4.1-4.5-8.3-6.8-12.5s-3.5-6.4-3.5-6.5c0.9-0.5,1.8-0.9,2.8-1.3l-0.2,0.2l12.4,22.9l1.8,3.3l3.5,6.4
	c0.2,0.3,0.5,0.5,0.8,0.4c1.2-0.5,2.4-1.1,3.5-1.8c0.3-0.1,0.5-0.5,0.5-0.8c-0.9-2-1.9-4-3.1-5.9c2.8-1.2,5.5-2.9,7.8-4.9
	c2.4-2.1,4.4-4.4,6.1-7.1c0.4-0.6,0.6-1.2,0.5-1.9c0-0.7-0.2-1.3-0.5-1.9c-2.6-4.2-6.3-7.8-10.6-10.3c-5.8-3.5-12.6-4.6-19.2-3.3
	l-3.5-6.4C16,0.2,15.7,0,15.4,0c-1.2,0.5-2.4,1.1-3.6,1.8c-0.3,0.2-0.5,0.5-0.5,0.8c0.9,2,1.9,4,3.1,5.9C9.4,10.7,5,14.2,1.8,18.7
	c0,0.1-0.1,0.2-0.3,0.4s-0.3,0.4-0.3,0.4c-0.1,0.1-0.2,0.3-0.3,0.4c-0.1,0.2-0.2,0.4-0.3,0.5s-0.1,0.3-0.2,0.4
	c-0.1,0.2-0.2,0.3-0.2,0.5c0,0.1-0.1,0.3-0.1,0.5C0,22,0,22.2,0,22.4c0,0.7,0.2,1.4,0.6,1.9c1.1,1.8,2.4,3.5,3.9,5
	c1.4,1.5,3,2.9,4.7,4c0.1,0,0.1,0.1,0.2,0.1C9.5,33.5,9.6,33.4,9.6,33.1C9.6,33.2,9.6,33.2,9.6,33.1L9.6,33.1L9.6,33.1z M36.2,26.2
	c1.6-3.3,1.8-7.1,0.3-10.5c-0.7-1.6-1.6-3-2.9-4.1c5.3,2.2,9.8,6,12.8,10.9c-2.9,4.8-7.3,8.6-12.5,10.7l-1.4-2.5
	C34.1,29.4,35.3,27.9,36.2,26.2L36.2,26.2z M25,12.1c4.7,0,8.5,3.8,8.5,8.5c0,0.4-0.1,0.7-0.4,0.9c-0.5,0.5-1.4,0.5-1.9,0
	c-0.3-0.2-0.4-0.6-0.4-0.9c0-3.2-2.6-5.8-5.8-5.8c0,0,0,0,0,0c-0.7,0-1.3-0.6-1.3-1.3c0,0,0,0,0,0c0-0.4,0.1-0.7,0.4-0.9
	C24.3,12.2,24.6,12.1,25,12.1L25,12.1L25,12.1z M33.8,11.7l-0.2-0.2L33.8,11.7L33.8,11.7z"/>
</svg>
